<svg width="465" height="113" viewBox="0 0 465 113" fill="none" xmlns="http://www.w3.org/2000/svg">
<path d="M29.1657 25.9997C29.1657 28.9452 31.5535 31.333 34.499 31.333C37.4445 31.333 39.8324 28.9452 39.8324 25.9997C39.8324 23.0542 37.4445 20.6664 34.499 20.6664C31.5535 20.6664 29.1657 23.0542 29.1657 25.9997ZM68.499 91.9997L68.3201 92.9835L68.499 91.9997ZM236.499 3.49999L236.865 2.56942L236.865 2.56942L236.499 3.49999ZM294.499 87L294.252 87.969L294.499 87ZM394.499 59.5L394.57 58.5025L394.499 59.5ZM423.666 98.9997C423.666 101.945 426.054 104.333 428.999 104.333C431.945 104.333 434.332 101.945 434.332 98.9997C434.332 96.0541 431.945 93.6663 428.999 93.6663C426.054 93.6663 423.666 96.0541 423.666 98.9997ZM33.3818 27.9495C33.3572 28.5013 33.7846 28.9685 34.3363 28.993C34.8881 29.0176 35.3552 28.5902 35.3798 28.0384L33.3818 27.9495ZM35.286 32.0709C35.2882 31.5186 34.8422 31.0691 34.29 31.067C33.7377 31.0648 33.2882 31.5107 33.286 32.063L35.286 32.0709ZM33.3424 36.1649C33.3596 36.7169 33.8211 37.1504 34.3731 37.1332C34.9251 37.116 35.3587 36.6546 35.3415 36.1026L33.3424 36.1649ZM35.5373 40.1396C35.5009 39.5885 35.0247 39.1713 34.4736 39.2076C33.9225 39.244 33.5052 39.7202 33.5416 40.2713L35.5373 40.1396ZM33.8839 44.3529C33.9399 44.9023 34.4308 45.3023 34.9802 45.2462C35.5297 45.1901 35.9296 44.6992 35.8735 44.1498L33.8839 44.3529ZM36.3586 48.1513C36.2815 47.6044 35.7757 47.2235 35.2288 47.3006C34.682 47.3777 34.3011 47.8835 34.3782 48.4304L36.3586 48.1513ZM35.0337 52.4818C35.1334 53.025 35.6546 53.3846 36.1978 53.285C36.741 53.1853 37.1006 52.6641 37.0009 52.1209L35.0337 52.4818ZM37.8161 56.0634C37.6917 55.5253 37.1547 55.1899 36.6166 55.3142C36.0785 55.4386 35.7431 55.9756 35.8675 56.5137L37.8161 56.0634ZM36.8928 60.4958C37.0443 61.0269 37.5976 61.3347 38.1287 61.1832C38.6598 61.0317 38.9676 60.4784 38.8161 59.9473L36.8928 60.4958ZM40.0226 63.7695C39.8411 63.2479 39.2711 62.9722 38.7495 63.1536C38.2279 63.3351 37.9522 63.9051 38.1336 64.4267L40.0226 63.7695ZM39.6131 68.2825C39.8278 68.7913 40.4143 69.0298 40.9232 68.8151C41.432 68.6004 41.6705 68.0139 41.4558 67.505L39.6131 68.2825ZM43.1377 71.1243C42.8864 70.6325 42.284 70.4375 41.7922 70.6888C41.3004 70.9401 41.1055 71.5425 41.3568 72.0343L43.1377 71.1243ZM43.3921 75.6472C43.6833 76.1165 44.2998 76.2608 44.7691 75.9696C45.2384 75.6784 45.3827 75.0619 45.0915 74.5926L43.3921 75.6472ZM47.3371 77.8656C47.0032 77.4257 46.3759 77.3396 45.936 77.6735C45.496 78.0073 45.41 78.6346 45.7439 79.0746L47.3371 77.8656ZM48.4293 82.2598C48.8071 82.6626 49.44 82.6828 49.8428 82.3049C50.2455 81.927 50.2657 81.2942 49.8879 80.8914L48.4293 82.2598ZM52.7454 83.6137C52.3243 83.2564 51.6932 83.3081 51.3359 83.7292C50.9786 84.1503 51.0303 84.7814 51.4514 85.1387L52.7454 83.6137ZM54.7965 87.6502C55.2574 87.9546 55.8777 87.8277 56.1821 87.3669C56.4864 86.906 56.3596 86.2857 55.8987 85.9813L54.7965 87.6502ZM59.3141 87.9491C58.8197 87.703 58.2194 87.9043 57.9733 88.3987C57.7272 88.8932 57.9285 89.4935 58.423 89.7396L59.3141 87.9491ZM62.261 91.3723C62.781 91.5583 63.3533 91.2875 63.5393 90.7675C63.7253 90.2475 63.4545 89.6751 62.9345 89.4891L62.261 91.3723ZM66.7179 90.6065C66.1804 90.4793 65.6416 90.8118 65.5144 91.3493C65.3872 91.8867 65.7198 92.4255 66.2573 92.5527L66.7179 90.6065ZM70.3235 93.2809C70.8722 93.3444 71.3684 92.9512 71.4319 92.4025C71.4954 91.8539 71.1021 91.3577 70.5535 91.2942L70.3235 93.2809ZM74.3518 91.4976C73.7995 91.501 73.3546 91.9514 73.3579 92.5037C73.3613 93.056 73.8117 93.501 74.364 93.4976L74.3518 91.4976ZM78.4033 93.2497C78.952 93.1868 79.3459 92.691 79.283 92.1424C79.2201 91.5937 78.7243 91.1998 78.1756 91.2627L78.4033 93.2497ZM81.955 90.6462C81.4145 90.7596 81.0682 91.2897 81.1816 91.8302C81.295 92.3708 81.8251 92.717 82.3657 92.6036L81.955 90.6462ZM86.2383 91.6265C86.7683 91.471 87.0719 90.9154 86.9164 90.3854C86.7609 89.8555 86.2052 89.5519 85.6753 89.7074L86.2383 91.6265ZM89.3445 88.493C88.826 88.6834 88.5601 89.258 88.7505 89.7764C88.9409 90.2948 89.5155 90.5608 90.0339 90.3704L89.3445 88.493ZM93.758 88.8789C94.2649 88.6596 94.498 88.0709 94.2787 87.564C94.0594 87.0572 93.4707 86.824 92.9638 87.0433L93.758 88.8789ZM96.47 85.4245C95.974 85.6674 95.7689 86.2665 96.0118 86.7624C96.2547 87.2584 96.8537 87.4636 97.3497 87.2207L96.47 85.4245ZM100.875 85.4029C101.361 85.1402 101.542 84.5335 101.279 84.0476C101.017 83.5618 100.41 83.3809 99.9243 83.6435L100.875 85.4029ZM103.343 81.7167C102.866 81.9959 102.706 82.6085 102.985 83.085C103.265 83.5615 103.877 83.7215 104.354 83.4422L103.343 81.7167ZM107.719 81.402C108.187 81.109 108.329 80.492 108.036 80.0238C107.743 79.5557 107.126 79.4136 106.658 79.7066L107.719 81.402ZM109.947 77.5893C109.486 77.894 109.359 78.5144 109.664 78.975C109.969 79.4357 110.589 79.5621 111.05 79.2574L109.947 77.5893ZM114.33 77.035C114.784 76.7204 114.897 76.0974 114.582 75.6434C114.268 75.1895 113.645 75.0766 113.191 75.3912L114.33 77.035ZM116.375 73.1394C115.927 73.4624 115.825 74.0874 116.148 74.5354C116.471 74.9834 117.096 75.0847 117.544 74.7617L116.375 73.1394ZM120.745 72.414C121.187 72.0839 121.279 71.4573 120.948 71.0146C120.618 70.5719 119.992 70.4806 119.549 70.8108L120.745 72.414ZM122.658 68.4579C122.22 68.7941 122.137 69.4219 122.474 69.86C122.81 70.2982 123.437 70.3808 123.876 70.0446L122.658 68.4579ZM126.997 67.619C127.432 67.2776 127.507 66.649 127.165 66.2148C126.824 65.7807 126.195 65.7054 125.761 66.0468L126.997 67.619ZM128.827 63.6105C128.397 63.9562 128.328 64.5856 128.673 65.0163C129.019 65.4471 129.648 65.516 130.079 65.1703L128.827 63.6105ZM133.143 62.6894C133.571 62.3401 133.635 61.7102 133.285 61.2824C132.936 60.8545 132.306 60.7909 131.878 61.1401L133.143 62.6894ZM134.911 58.6465C134.485 58.9987 134.426 59.6291 134.778 60.0545C135.13 60.4799 135.761 60.5392 136.186 60.187L134.911 58.6465ZM139.211 57.6682C139.634 57.3137 139.69 56.683 139.336 56.2595C138.981 55.8361 138.35 55.7802 137.927 56.1347L139.211 57.6682ZM140.935 53.6047C140.513 53.961 140.46 54.5919 140.816 55.0139C141.173 55.4359 141.804 55.4891 142.226 55.1328L140.935 53.6047ZM145.226 52.5906C145.647 52.2331 145.699 51.602 145.341 51.1811C144.984 50.7602 144.352 50.7088 143.932 51.0664L145.226 52.5906ZM146.926 48.5177C146.505 48.876 146.455 49.5072 146.814 49.9275C147.172 50.3478 147.803 50.398 148.223 50.0397L146.926 48.5177ZM151.215 47.4873C151.635 47.1288 151.685 46.4976 151.326 46.0775C150.968 45.6574 150.336 45.6076 149.916 45.9661L151.215 47.4873ZM152.906 43.4149C152.486 43.7732 152.436 44.4043 152.794 44.8246C153.153 45.2449 153.784 45.2951 154.204 44.9368L152.906 43.4149ZM157.2 42.3869C157.621 42.0293 157.672 41.3983 157.314 40.9774C156.957 40.5565 156.326 40.5051 155.905 40.8627L157.2 42.3869ZM158.904 38.3219C158.482 38.6782 158.429 39.3091 158.785 39.7311C159.141 40.1531 159.772 40.2063 160.194 39.85L158.904 38.3219ZM163.204 37.3184C163.628 36.9639 163.684 36.3332 163.329 35.9097C162.975 35.4862 162.344 35.4304 161.921 35.7849L163.204 37.3184ZM164.943 33.2677C164.518 33.6198 164.459 34.2502 164.811 34.6756C165.163 35.1011 165.793 35.1604 166.219 34.8083L164.943 33.2677ZM169.253 32.3132C169.681 31.964 169.745 31.334 169.396 30.9062C169.047 30.4783 168.417 30.4145 167.989 30.7638L169.253 32.3132ZM171.052 28.2847C170.621 28.6303 170.552 29.2597 170.897 29.6905C171.243 30.1213 171.872 30.1904 172.303 29.8448L171.052 28.2847ZM175.372 27.4079C175.806 27.0667 175.882 26.438 175.54 26.0037C175.199 25.5695 174.571 25.494 174.136 25.8352L175.372 27.4079ZM177.258 23.412C176.82 23.748 176.737 24.3757 177.072 24.814C177.408 25.2524 178.036 25.3354 178.474 24.9994L177.258 23.412ZM181.587 22.6478C182.03 22.318 182.121 21.6915 181.792 21.2485C181.462 20.8055 180.835 20.7137 180.392 21.0435L181.587 22.6478ZM183.595 18.6996C183.146 19.022 183.044 19.6468 183.366 20.0952C183.689 20.5436 184.314 20.6458 184.762 20.3233L183.595 18.6996ZM187.947 18.0779C188.401 17.7641 188.515 17.1413 188.202 16.6868C187.888 16.2324 187.265 16.1184 186.81 16.4322L187.947 18.0779ZM190.098 14.2147C189.637 14.5182 189.509 15.1383 189.812 15.5997C190.116 16.0611 190.736 16.189 191.197 15.8855L190.098 14.2147ZM194.49 13.7784C194.959 13.4869 195.104 12.8704 194.812 12.4012C194.521 11.9321 193.904 11.788 193.435 12.0795L194.49 13.7784ZM196.808 10.0523C196.331 10.3294 196.168 10.9413 196.445 11.4191C196.722 11.8968 197.334 12.0595 197.812 11.7824L196.808 10.0523ZM201.239 9.87391C201.727 9.61424 201.912 9.00859 201.652 8.52116C201.392 8.03373 200.787 7.8491 200.299 8.10877L201.239 9.87391ZM203.841 6.31431C203.343 6.55315 203.133 7.15046 203.372 7.64843C203.611 8.1464 204.208 8.35646 204.706 8.11762L203.841 6.31431ZM208.218 6.53614C208.728 6.32237 208.967 5.73626 208.753 5.22702C208.54 4.71779 207.954 4.47827 207.444 4.69204L208.218 6.53614ZM211.193 3.24565C210.672 3.42842 210.397 3.99907 210.58 4.52023C210.763 5.0414 211.334 5.31573 211.855 5.13297L211.193 3.24565ZM215.543 3.98155C216.076 3.83648 216.39 3.28689 216.245 2.754C216.1 2.2211 215.55 1.90671 215.017 2.05177L215.543 3.98155ZM218.922 1.16022C218.378 1.25956 218.018 1.7805 218.118 2.32378C218.217 2.86706 218.738 3.22694 219.281 3.1276L218.922 1.16022ZM223.063 2.62511C223.614 2.58063 224.024 2.09831 223.979 1.54782C223.935 0.99733 223.453 0.587125 222.902 0.631602L223.063 2.62511ZM226.951 0.536224C226.4 0.516331 225.936 0.947628 225.916 1.49955C225.896 2.05148 226.328 2.51503 226.879 2.53493L226.951 0.536224ZM230.658 2.91474C231.203 3.00617 231.719 2.63876 231.81 2.09409C231.902 1.54943 231.534 1.03377 230.99 0.94234L230.658 2.91474ZM234.934 1.88701C234.407 1.72142 233.846 2.0143 233.68 2.54117C233.515 3.06805 233.808 3.6294 234.335 3.79499L234.934 1.88701ZM237.948 5.21655C238.447 5.45317 239.043 5.24044 239.28 4.74141C239.517 4.24238 239.304 3.64602 238.805 3.40941L237.948 5.21655ZM242.463 5.45988C242 5.15775 241.381 5.28762 241.079 5.74994C240.777 6.21226 240.906 6.83197 241.369 7.13409L242.463 5.45988ZM244.512 9.49862C244.931 9.85831 245.563 9.81015 245.922 9.39105C246.282 8.97196 246.234 8.34062 245.815 7.98093L244.512 9.49862ZM248.818 10.8888C248.444 10.4826 247.812 10.4565 247.405 10.8306C246.999 11.2047 246.973 11.8373 247.347 12.2436L248.818 10.8888ZM249.879 15.2967C250.211 15.7384 250.838 15.8279 251.279 15.4965C251.721 15.165 251.811 14.5382 251.479 14.0964L249.879 15.2967ZM253.826 17.5227C253.533 17.0549 252.916 16.9137 252.448 17.2072C251.98 17.5008 251.839 18.118 252.132 18.5858L253.826 17.5227ZM254.137 22.0422C254.399 22.5286 255.005 22.7109 255.492 22.4493C255.978 22.1878 256.16 21.5814 255.899 21.095L254.137 22.0422ZM257.749 24.7759C257.513 24.2763 256.918 24.0621 256.418 24.2974C255.918 24.5328 255.704 25.1286 255.94 25.6282L257.749 24.7759ZM257.577 29.3083C257.792 29.8172 258.378 30.0558 258.887 29.8412C259.396 29.6266 259.635 29.04 259.42 28.5312L257.577 29.3083ZM260.952 32.3355C260.754 31.8203 260.175 31.5637 259.659 31.7625C259.144 31.9613 258.888 32.5402 259.086 33.0554L260.952 32.3355ZM260.5 36.8493C260.687 37.3688 261.26 37.6379 261.78 37.4504C262.299 37.2629 262.568 36.6898 262.381 36.1703L260.5 36.8493ZM263.738 40.0198C263.557 39.4978 262.988 39.2208 262.466 39.4011C261.944 39.5814 261.667 40.1508 261.847 40.6728L263.738 40.0198ZM263.159 44.5174C263.336 45.0406 263.904 45.3211 264.427 45.1441C264.95 44.967 265.231 44.3994 265.054 43.8762L263.159 44.5174ZM266.358 47.7299C266.18 47.207 265.612 46.927 265.089 47.1047C264.566 47.2823 264.286 47.8502 264.464 48.3732L266.358 47.7299ZM265.789 52.2298C265.972 52.7512 266.542 53.0263 267.063 52.8442C267.585 52.6621 267.86 52.0918 267.678 51.5704L265.789 52.2298ZM269.043 55.386C268.852 54.8676 268.277 54.602 267.759 54.7927C267.241 54.9834 266.975 55.5581 267.166 56.0765L269.043 55.386ZM268.624 59.9002C268.828 60.4136 269.409 60.6645 269.922 60.4608C270.436 60.2571 270.687 59.6758 270.483 59.1625L268.624 59.9002ZM272.032 62.8815C271.81 62.3757 271.22 62.1454 270.714 62.3672C270.208 62.589 269.978 63.1788 270.2 63.6846L272.032 62.8815ZM271.939 67.4199C272.185 67.9146 272.785 68.1167 273.28 67.8712C273.774 67.6257 273.976 67.0257 273.731 66.5309L271.939 67.4199ZM275.618 70.068C275.343 69.5893 274.731 69.4247 274.253 69.7002C273.774 69.9758 273.609 70.5871 273.885 71.0658L275.618 70.068ZM276.087 74.5764C276.399 75.0319 277.022 75.1479 277.477 74.8356C277.933 74.5233 278.049 73.9008 277.736 73.4453L276.087 74.5764ZM280.13 76.6039C279.774 76.1812 279.143 76.1268 278.721 76.4823C278.298 76.8378 278.243 77.4686 278.599 77.8912L280.13 76.6039ZM281.475 80.9345C281.878 81.312 282.511 81.2911 282.889 80.8879C283.266 80.4847 283.245 79.8519 282.842 79.4744L281.475 80.9345ZM285.882 81.9584C285.431 81.6397 284.807 81.7469 284.488 82.1979C284.169 82.6489 284.276 83.273 284.727 83.5917L285.882 81.9584ZM288.337 85.7635C288.83 86.0123 289.431 85.8143 289.68 85.3212C289.929 84.8281 289.731 84.2267 289.238 83.9779L288.337 85.7635ZM292.846 85.4748C292.322 85.3009 291.756 85.5848 291.582 86.109C291.408 86.6332 291.692 87.1991 292.216 87.373L292.846 85.4748ZM296.29 88.4246C296.833 88.529 297.357 88.1741 297.461 87.6318C297.566 87.0894 297.211 86.5651 296.669 86.4607L296.29 88.4246ZM300.572 86.9831C300.021 86.9403 299.54 87.3521 299.497 87.9027C299.455 88.4533 299.866 88.9343 300.417 88.9771L300.572 86.9831ZM304.566 89.0839C305.118 89.0706 305.555 88.6123 305.542 88.0602C305.529 87.5081 305.071 87.0712 304.518 87.0844L304.566 89.0839ZM308.474 86.8103C307.925 86.8721 307.53 87.3671 307.592 87.9159C307.654 88.4647 308.149 88.8595 308.697 88.7977L308.474 86.8103ZM312.783 88.1778C313.325 88.0752 313.682 87.5521 313.58 87.0095C313.477 86.4668 312.954 86.1101 312.411 86.2127L312.783 88.1778ZM316.302 85.347C315.767 85.4831 315.444 86.0273 315.58 86.5626C315.716 87.0978 316.26 87.4214 316.795 87.2854L316.302 85.347ZM320.744 86.1697C321.272 86.0065 321.567 85.4465 321.404 84.9189C321.241 84.3913 320.681 84.0959 320.153 84.2591L320.744 86.1697ZM323.962 82.9906C323.442 83.1755 323.17 83.7473 323.355 84.2677C323.54 84.7881 324.112 85.0601 324.632 84.8752L323.962 82.9906ZM328.463 83.4391C328.977 83.2371 329.23 82.6566 329.028 82.1426C328.826 81.6286 328.245 81.3757 327.731 81.5778L328.463 83.4391ZM331.458 80.0542C330.949 80.2695 330.711 80.8563 330.927 81.3649C331.142 81.8735 331.729 82.1112 332.238 81.8959L331.458 80.0542ZM335.971 80.2697C336.476 80.0444 336.702 79.4531 336.477 78.9488C336.251 78.4445 335.66 78.2183 335.156 78.4435L335.971 80.2697ZM338.833 76.7685C338.332 77.0007 338.114 77.5952 338.346 78.0963C338.578 78.5974 339.173 78.8154 339.674 78.5832L338.833 76.7685ZM343.353 76.8574C343.852 76.6209 344.065 76.0246 343.828 75.5255C343.592 75.0264 342.995 74.8135 342.496 75.05L343.353 76.8574ZM346.154 73.307C345.655 73.5453 345.445 74.1424 345.683 74.6406C345.921 75.1388 346.518 75.3495 347.017 75.1112L346.154 73.307ZM350.674 73.363C351.172 73.1253 351.383 72.5285 351.146 72.03C350.908 71.5315 350.311 71.32 349.813 71.5577L350.674 73.363ZM353.482 69.82C352.982 70.0546 352.767 70.6502 353.002 71.1501C353.237 71.6501 353.832 71.8652 354.332 71.6305L353.482 69.82ZM358.002 69.9311C358.505 69.7021 358.726 69.109 358.497 68.6065C358.268 68.1039 357.675 67.8822 357.173 68.1112L358.002 69.9311ZM360.892 66.4515C360.385 66.6721 360.154 67.2614 360.374 67.7677C360.595 68.274 361.184 68.5056 361.691 68.2849L360.892 66.4515ZM365.404 66.7136C365.916 66.5044 366.16 65.9205 365.951 65.4093C365.742 64.8982 365.158 64.6534 364.647 64.8626L365.404 66.7136ZM368.447 63.3693C367.93 63.5635 367.668 64.14 367.862 64.657C368.057 65.1741 368.633 65.4358 369.15 65.2417L368.447 63.3693ZM372.933 63.8973C373.456 63.7223 373.739 63.1558 373.564 62.6319C373.389 62.1081 372.823 61.8253 372.299 62.0003L372.933 63.8973ZM376.216 60.787C375.684 60.938 375.376 61.491 375.527 62.0222C375.678 62.5535 376.231 62.8618 376.762 62.7109L376.216 60.787ZM380.639 61.7217C381.178 61.6006 381.517 61.0656 381.396 60.5268C381.275 59.9879 380.74 59.6492 380.201 59.7703L380.639 61.7217ZM384.248 58.9988C383.702 59.0834 383.328 59.5944 383.413 60.1401C383.497 60.6859 384.008 61.0598 384.554 60.9752L384.248 58.9988ZM388.496 60.5204C389.047 60.4797 389.46 60.0002 389.42 59.4494C389.379 58.8986 388.899 58.4851 388.349 58.5258L388.496 60.5204ZM392.496 58.409C391.944 58.3982 391.487 58.837 391.476 59.3892C391.466 59.9414 391.904 60.3978 392.457 60.4086L392.496 58.409ZM396.267 60.728C396.811 60.8256 397.33 60.4641 397.428 59.9205C397.526 59.377 397.164 58.8571 396.621 58.7595L396.267 60.728ZM400.574 59.8877C400.059 59.6861 399.479 59.9396 399.278 60.4538C399.076 60.9679 399.329 61.5482 399.844 61.7497L400.574 59.8877ZM403.211 63.4091C403.686 63.6911 404.3 63.5347 404.582 63.0599C404.864 62.585 404.707 61.9715 404.232 61.6894L403.211 63.4091ZM407.565 63.9829C407.13 63.6423 406.501 63.7185 406.161 64.1532C405.82 64.5879 405.896 65.2165 406.331 65.5571L407.565 63.9829ZM409.207 68.0665C409.604 68.4495 410.238 68.4374 410.62 68.0394C411.003 67.6415 410.991 67.0085 410.593 66.6255L409.207 68.0665ZM413.357 69.5185C412.992 69.1046 412.36 69.0654 411.946 69.431C411.532 69.7966 411.493 70.4286 411.858 70.8425L413.357 69.5185ZM414.311 73.8176C414.648 74.2547 415.276 74.3355 415.713 73.998C416.15 73.6604 416.231 73.0325 415.894 72.5953L414.311 73.8176ZM418.233 75.8092C417.92 75.3542 417.298 75.2391 416.843 75.5522C416.388 75.8652 416.273 76.4878 416.586 76.9428L418.233 75.8092ZM418.704 80.1856C418.996 80.6547 419.612 80.7988 420.081 80.5073C420.55 80.2159 420.694 79.5993 420.403 79.1302L418.704 80.1856ZM422.424 82.5399C422.152 82.0593 421.542 81.8903 421.061 82.1624C420.581 82.4345 420.412 83.0447 420.684 83.5253L422.424 82.5399ZM422.535 86.9418C422.79 87.432 423.393 87.6231 423.884 87.3687C424.374 87.1143 424.565 86.5107 424.311 86.0205L422.535 86.9418ZM426.071 89.5577C425.833 89.0592 425.236 88.8478 424.738 89.0856C424.239 89.3233 424.028 89.9202 424.265 90.4187L426.071 89.5577ZM425.886 93.9649C426.107 94.4709 426.697 94.7018 427.203 94.4806C427.709 94.2593 427.94 93.6698 427.719 93.1637L425.886 93.9649ZM429.239 96.8149C429.037 96.3012 428.456 96.049 427.942 96.2517C427.428 96.4544 427.176 97.0352 427.379 97.5489L429.239 96.8149ZM34.499 25.9997C33.5027 25.9142 33.5027 25.9142 33.5027 25.9142C33.5027 25.9143 33.5027 25.9143 33.5027 25.9143C33.5027 25.9144 33.5027 25.9145 33.5027 25.9146C33.5026 25.9148 33.5026 25.915 33.5026 25.9153C33.5025 25.9158 33.5025 25.9165 33.5024 25.9174C33.5023 25.9192 33.5021 25.9216 33.5018 25.9248C33.5013 25.9311 33.5005 25.9402 33.4996 25.952C33.4976 25.9756 33.4949 26.0101 33.4915 26.0551C33.4846 26.1453 33.4749 26.2779 33.4634 26.4506C33.4406 26.7959 33.4106 27.3018 33.3818 27.9495L35.3798 28.0384C35.4079 27.4059 35.4371 26.9146 35.4591 26.5829C35.4701 26.417 35.4793 26.2911 35.4857 26.2074C35.4889 26.1655 35.4913 26.1342 35.493 26.1137C35.4938 26.1035 35.4945 26.096 35.4949 26.0912C35.4951 26.0889 35.4952 26.0872 35.4953 26.0862C35.4953 26.0856 35.4954 26.0853 35.4954 26.0852C35.4954 26.0851 35.4954 26.085 35.4954 26.0851C35.4954 26.0851 35.4954 26.0851 35.4954 26.0851C35.4954 26.0851 35.4954 26.0851 35.4954 26.0851C35.4954 26.0852 35.4954 26.0852 34.499 25.9997ZM33.286 32.063C33.2812 33.2878 33.2957 34.6648 33.3424 36.1649L35.3415 36.1026C35.2955 34.6276 35.2813 33.2741 35.286 32.0709L33.286 32.063ZM33.5416 40.2713C33.6278 41.5773 33.7398 42.9423 33.8839 44.3529L35.8735 44.1498C35.7321 42.7645 35.622 41.4234 35.5373 40.1396L33.5416 40.2713ZM34.3782 48.4304C34.5652 49.7574 34.7823 51.1111 35.0337 52.4818L37.0009 52.1209C36.7547 50.779 36.542 49.4527 36.3586 48.1513L34.3782 48.4304ZM35.8675 56.5137C36.1732 57.8365 36.5137 59.1666 36.8928 60.4958L38.8161 59.9473C38.4469 58.6527 38.1147 57.3554 37.8161 56.0634L35.8675 56.5137ZM38.1336 64.4267C38.5846 65.7229 39.0766 67.0108 39.6131 68.2825L41.4558 67.505C40.937 66.2755 40.4604 65.0278 40.0226 63.7695L38.1336 64.4267ZM41.3568 72.0343C41.9856 73.265 42.6628 74.472 43.3921 75.6472L45.0915 74.5926C44.3932 73.4673 43.743 72.3088 43.1377 71.1243L41.3568 72.0343ZM45.7439 79.0746C46.5818 80.1789 47.4757 81.2433 48.4293 82.2598L49.8879 80.8914C48.9843 79.9283 48.1351 78.9173 47.3371 77.8656L45.7439 79.0746ZM51.4514 85.1387C52.5051 86.0328 53.619 86.8726 54.7965 87.6502L55.8987 85.9813C54.7898 85.249 53.7398 84.4576 52.7454 83.6137L51.4514 85.1387ZM58.423 89.7396C59.6441 90.3474 60.9226 90.8936 62.261 91.3723L62.9345 89.4891C61.6703 89.037 60.4645 88.5217 59.3141 87.9491L58.423 89.7396ZM66.2573 92.5527C66.9316 92.7123 67.6192 92.8561 68.3201 92.9835L68.6779 91.0158C68.011 90.8945 67.3578 90.7579 66.7179 90.6065L66.2573 92.5527ZM68.3201 92.9835C68.9844 93.1043 69.6523 93.2032 70.3235 93.2809L70.5535 91.2942C69.9244 91.2214 69.2991 91.1287 68.6779 91.0158L68.3201 92.9835ZM74.364 93.4976C75.6996 93.4894 77.0464 93.4052 78.4033 93.2497L78.1756 91.2627C76.8862 91.4104 75.6114 91.4899 74.3518 91.4976L74.364 93.4976ZM82.3657 92.6036C83.6485 92.3345 84.9397 92.0075 86.2383 91.6265L85.6753 89.7074C84.4235 90.0746 83.1833 90.3886 81.955 90.6462L82.3657 92.6036ZM90.0339 90.3704C91.2689 89.9168 92.5105 89.4186 93.758 88.8789L92.9638 87.0433C91.7485 87.5692 90.5419 88.0533 89.3445 88.493L90.0339 90.3704ZM97.3497 87.2207C98.52 86.6475 99.6954 86.0407 100.875 85.4029L99.9243 83.6435C98.7663 84.2695 97.6148 84.8639 96.47 85.4245L97.3497 87.2207ZM104.354 83.4422C105.472 82.7871 106.594 82.1063 107.719 81.402L106.658 79.7066C105.548 80.4013 104.443 81.0719 103.343 81.7167L104.354 83.4422ZM111.05 79.2574C112.14 78.5362 113.234 77.7948 114.33 77.035L113.191 75.3912C112.106 76.1433 111.024 76.8765 109.947 77.5893L111.05 79.2574ZM117.544 74.7617C118.609 73.9943 119.676 73.2113 120.745 72.414L119.549 70.8108C118.488 71.602 117.43 72.3787 116.375 73.1394L117.544 74.7617ZM123.876 70.0446C124.915 69.2475 125.955 68.4385 126.997 67.619L125.761 66.0468C124.725 66.8617 123.69 67.6659 122.658 68.4579L123.876 70.0446ZM130.079 65.1703C131.099 64.3516 132.121 63.5242 133.143 62.6894L131.878 61.1401C130.86 61.9717 129.843 62.7956 128.827 63.6105L130.079 65.1703ZM136.186 60.187C137.194 59.3529 138.202 58.5129 139.211 57.6682L137.927 56.1347C136.92 56.9773 135.915 57.815 134.911 58.6465L136.186 60.187ZM142.226 55.1328C143.226 54.2883 144.226 53.4405 145.226 52.5906L143.932 51.0664C142.932 51.9153 141.933 52.7618 140.935 53.6047L142.226 55.1328ZM148.223 50.0397C149.221 49.1895 150.218 48.3382 151.215 47.4873L149.916 45.9661C148.919 46.8171 147.923 47.6679 146.926 48.5177L148.223 50.0397ZM154.204 44.9368C155.203 44.085 156.202 43.2346 157.2 42.3869L155.905 40.8627C154.906 41.7114 153.906 42.5625 152.906 43.4149L154.204 44.9368ZM160.194 39.85C161.199 39.0018 162.202 38.1575 163.204 37.3184L161.921 35.7849C160.916 36.6261 159.91 37.4722 158.904 38.3219L160.194 39.85ZM166.219 34.8083C167.232 33.9695 168.244 33.1374 169.253 32.3132L167.989 30.7638C166.975 31.5912 165.96 32.4263 164.943 33.2677L166.219 34.8083ZM172.303 29.8448C173.328 29.0225 174.351 28.2098 175.372 27.4079L174.136 25.8352C173.11 26.6416 172.082 27.4585 171.052 28.2847L172.303 29.8448ZM178.474 24.9994C179.515 24.2022 180.552 23.4179 181.587 22.6478L180.392 21.0435C179.35 21.8195 178.305 22.6095 177.258 23.412L178.474 24.9994ZM184.762 20.3233C185.827 19.5573 186.889 18.8083 187.947 18.0779L186.81 16.4322C185.742 17.1703 184.669 17.9266 183.595 18.6996L184.762 20.3233ZM191.197 15.8855C192.3 15.1601 193.398 14.4571 194.49 13.7784L193.435 12.0795C192.327 12.768 191.214 13.4804 190.098 14.2147L191.197 15.8855ZM197.812 11.7824C198.961 11.116 200.103 10.4791 201.239 9.87391L200.299 8.10877C199.141 8.726 197.977 9.37465 196.808 10.0523L197.812 11.7824ZM204.706 8.11762C205.885 7.55201 207.056 7.02404 208.218 6.53614L207.444 4.69204C206.249 5.19365 205.048 5.73535 203.841 6.31431L204.706 8.11762ZM211.855 5.13297C213.096 4.69781 214.325 4.31302 215.543 3.98155L215.017 2.05177C213.751 2.39663 212.476 2.79584 211.193 3.24565L211.855 5.13297ZM219.281 3.1276C220.557 2.89439 221.818 2.72574 223.063 2.62511L222.902 0.631602C221.586 0.737955 220.259 0.915756 218.922 1.16022L219.281 3.1276ZM226.879 2.53493C228.156 2.58094 229.416 2.70616 230.658 2.91474L230.99 0.94234C229.658 0.718815 228.312 0.585247 226.951 0.536224L226.879 2.53493ZM234.335 3.79499C234.938 3.98467 235.538 4.19632 236.133 4.43056L236.865 2.56942C236.226 2.31798 235.582 2.09071 234.934 1.88701L234.335 3.79499ZM236.133 4.43056C236.753 4.67466 237.358 4.93691 237.948 5.21655L238.805 3.40941C238.174 3.11036 237.528 2.8301 236.865 2.56942L236.133 4.43056ZM241.369 7.13409C242.472 7.85488 243.518 8.64507 244.512 9.49862L245.815 7.98093C244.757 7.07316 243.642 6.23025 242.463 5.45988L241.369 7.13409ZM247.347 12.2436C248.234 13.2068 249.076 14.2264 249.879 15.2967L251.479 14.0964C250.639 12.9769 249.754 11.9052 248.818 10.8888L247.347 12.2436ZM252.132 18.5858C252.831 19.6992 253.498 20.8531 254.137 22.0422L255.899 21.095C255.24 19.8706 254.551 18.6777 253.826 17.5227L252.132 18.5858ZM255.94 25.6282C256.506 26.8298 257.05 28.058 257.577 29.3083L259.42 28.5312C258.884 27.2589 258.328 26.0053 257.749 24.7759L255.94 25.6282ZM259.086 33.0554C259.569 34.306 260.039 35.572 260.5 36.8493L262.381 36.1703C261.916 34.8821 261.441 33.6021 260.952 32.3355L259.086 33.0554ZM261.847 40.6728C262.288 41.9499 262.724 43.2326 263.159 44.5174L265.054 43.8762C264.618 42.5901 264.181 41.3028 263.738 40.0198L261.847 40.6728ZM264.464 48.3732C264.902 49.663 265.343 50.9504 265.789 52.2298L267.678 51.5704C267.233 50.2984 266.795 49.017 266.358 47.7299L264.464 48.3732ZM267.166 56.0765C267.64 57.3652 268.125 58.6415 268.624 59.9002L270.483 59.1625C269.991 57.9221 269.512 56.6618 269.043 55.386L267.166 56.0765ZM270.2 63.6846C270.757 64.9557 271.335 66.2028 271.939 67.4199L273.731 66.5309C273.143 65.3456 272.578 64.1275 272.032 62.8815L270.2 63.6846ZM273.885 71.0658C274.582 72.2775 275.315 73.4501 276.087 74.5764L277.736 73.4453C276.997 72.3667 276.292 71.239 275.618 70.068L273.885 71.0658ZM278.599 77.8912C279.504 78.9675 280.461 79.9849 281.475 80.9345L282.842 79.4744C281.89 78.5831 280.988 77.6242 280.13 76.6039L278.599 77.8912ZM284.727 83.5917C285.865 84.3957 287.066 85.1225 288.337 85.7635L289.238 83.9779C288.058 83.3826 286.941 82.7071 285.882 81.9584L284.727 83.5917ZM292.216 87.373C292.878 87.5928 293.557 87.7917 294.252 87.969L294.746 86.031C294.096 85.8652 293.463 85.6796 292.846 85.4748L292.216 87.373ZM294.252 87.969C294.929 88.1417 295.608 88.2933 296.29 88.4246L296.669 86.4607C296.025 86.3367 295.384 86.1938 294.746 86.031L294.252 87.969ZM300.417 88.9771C301.793 89.0839 303.176 89.1172 304.566 89.0839L304.518 87.0844C303.192 87.1162 301.876 87.0844 300.572 86.9831L300.417 88.9771ZM308.697 88.7977C310.054 88.6449 311.416 88.4362 312.783 88.1778L312.411 86.2127C311.09 86.4625 309.777 86.6635 308.474 86.8103L308.697 88.7977ZM316.795 87.2854C318.108 86.9516 319.425 86.5779 320.744 86.1697L320.153 84.2591C318.863 84.6581 317.579 85.0223 316.302 85.347L316.795 87.2854ZM324.632 84.8752C325.907 84.4222 327.184 83.942 328.463 83.4391L327.731 81.5778C326.47 82.0735 325.214 82.5458 323.962 82.9906L324.632 84.8752ZM332.238 81.8959C333.481 81.3695 334.726 80.826 335.971 80.2697L335.156 78.4435C333.92 78.9954 332.687 79.5336 331.458 80.0542L332.238 81.8959ZM339.674 78.5832C340.9 78.0152 342.126 77.4385 343.353 76.8574L342.496 75.05C341.273 75.6295 340.052 76.2036 338.833 76.7685L339.674 78.5832ZM347.017 75.1112C348.237 74.5277 349.455 73.944 350.674 73.363L349.813 71.5577C348.593 72.1394 347.372 72.7241 346.154 73.307L347.017 75.1112ZM354.332 71.6305C355.557 71.0556 356.781 70.4878 358.002 69.9311L357.173 68.1112C355.943 68.6717 354.712 69.2426 353.482 69.82L354.332 71.6305ZM361.691 68.2849C362.932 67.7441 364.17 67.2189 365.404 66.7136L364.647 64.8626C363.396 65.3744 362.144 65.9054 360.892 66.4515L361.691 68.2849ZM369.15 65.2417C370.415 64.7665 371.676 64.3169 372.933 63.8973L372.299 62.0003C371.017 62.4285 369.733 62.8864 368.447 63.3693L369.15 65.2417ZM376.762 62.7109C378.061 62.3419 379.354 62.0105 380.639 61.7217L380.201 59.7703C378.876 60.068 377.547 60.4088 376.216 60.787L376.762 62.7109ZM384.554 60.9752C385.877 60.7703 387.191 60.6168 388.496 60.5204L388.349 58.5258C386.987 58.6265 385.619 58.7863 384.248 58.9988L384.554 60.9752ZM392.457 60.4086C393.116 60.4216 393.774 60.4509 394.428 60.4975L394.57 58.5025C393.88 58.4535 393.189 58.4226 392.496 58.409L392.457 60.4086ZM394.428 60.4975C395.048 60.5415 395.661 60.619 396.267 60.728L396.621 58.7595C395.946 58.6382 395.262 58.5517 394.57 58.5025L394.428 60.4975ZM399.844 61.7497C400.991 62.1995 402.114 62.7574 403.211 63.4091L404.232 61.6894C403.051 60.9879 401.831 60.3806 400.574 59.8877L399.844 61.7497ZM406.331 65.5571C407.316 66.3289 408.275 67.1697 409.207 68.0665L410.593 66.6255C409.618 65.6868 408.608 64.8007 407.565 63.9829L406.331 65.5571ZM411.858 70.8425C412.704 71.8 413.522 72.7959 414.311 73.8176L415.894 72.5953C415.081 71.5422 414.235 70.5121 413.357 69.5185L411.858 70.8425ZM416.586 76.9428C417.324 78.0156 418.03 79.101 418.704 80.1856L420.403 79.1302C419.714 78.0214 418.991 76.9098 418.233 75.8092L416.586 76.9428ZM420.684 83.5253C421.342 84.6878 421.96 85.8324 422.535 86.9418L424.311 86.0205C423.725 84.8913 423.095 83.7253 422.424 82.5399L420.684 83.5253ZM424.265 90.4187C424.877 91.6999 425.418 92.8937 425.886 93.9649L427.719 93.1637C427.242 92.0743 426.692 90.8604 426.071 89.5577L424.265 90.4187ZM427.379 97.5489C427.604 98.1199 427.774 98.5684 427.888 98.8729C427.945 99.0252 427.987 99.1414 428.015 99.219C428.029 99.2578 428.04 99.2869 428.047 99.306C428.05 99.3156 428.053 99.3226 428.054 99.3271C428.055 99.3294 428.056 99.331 428.056 99.332C428.056 99.3324 428.056 99.3328 428.056 99.3329C428.056 99.333 428.056 99.3331 428.056 99.3331C428.056 99.3331 428.056 99.3331 428.056 99.333C428.056 99.333 428.056 99.333 428.056 99.333C428.056 99.333 428.056 99.333 428.999 98.9997C429.942 98.6664 429.942 98.6663 429.942 98.6663C429.942 98.6663 429.942 98.6662 429.942 98.6662C429.942 98.6662 429.942 98.6661 429.942 98.666C429.942 98.6658 429.942 98.6656 429.942 98.6654C429.941 98.6649 429.941 98.6643 429.941 98.6635C429.94 98.6619 429.939 98.6596 429.938 98.6567C429.936 98.651 429.933 98.6426 429.93 98.6318C429.922 98.6101 429.91 98.5784 429.895 98.537C429.865 98.4542 429.821 98.3325 429.762 98.1746C429.644 97.8589 429.47 97.3985 429.239 96.8149L427.379 97.5489Z" fill="#909090"/>
<path d="M12.6247 17.96C13.1047 14.64 13.9047 10.76 14.9047 7.76C12.3447 10.84 9.46469 14.68 6.94469 18.6C7.74469 18.52 8.54469 18.44 9.30469 18.32C10.6647 18.16 11.5447 18 12.6247 17.96ZM13.7847 27.36C12.9047 26.92 12.1447 25.88 12.1047 23.56C12.1047 22.84 12.1047 21.92 12.2247 20.88L9.42469 21.16C7.82469 21.32 6.26469 21.48 5.14469 21.44C4.06469 23.32 3.18469 25.32 2.26469 26.96C1.78469 27.8 1.10469 27.64 0.824688 27.08C0.584688 26.6 0.344688 26.24 0.344688 25.6C0.344688 24.96 0.504688 24.04 0.984688 22.88C1.22469 22.28 1.50469 21.6 1.94469 20.76C1.22469 20.24 0.864688 19.68 0.744688 19.44C0.424688 18.68 0.584688 18.44 1.62469 18.6C2.18469 18.68 2.50469 18.72 3.06469 18.76C6.06469 13.52 11.5847 5.8 15.7847 2.24C16.6647 1.52 17.2647 1.56 17.8647 2.36C18.2647 2.88 18.5047 3.32 18.7847 4C18.9847 4.48 19.1047 4.92 19.1047 5.4C19.1047 5.88 19.0247 6.44 18.7847 7.04C17.8647 9.92 16.7447 14.08 15.9847 18.28C17.0647 18.76 17.4647 19.52 17.7447 20.36C17.9447 21 17.6647 21.16 16.9447 21.04L15.5447 20.8C15.3047 22.8 15.1047 24.84 15.0247 26.8C15.0247 27.52 14.5047 27.68 13.7847 27.36Z" fill="#909090"/>
<path d="M123.856 55.5693C123.993 55.2078 124.167 54.8653 124.379 54.5418C124.585 54.2064 124.813 53.904 125.063 53.6346C125.308 53.3533 125.563 53.1102 125.828 52.9055C126.087 52.6889 126.336 52.5272 126.573 52.4204C126.846 52.2976 127.058 52.2597 127.207 52.3067C127.369 52.3483 127.487 52.4522 127.562 52.6185C127.674 52.8679 127.705 53.2393 127.656 53.7326C127.613 54.2087 127.53 54.724 127.408 55.2785C127.293 55.8158 127.154 56.3492 126.993 56.8787C126.843 57.4029 126.714 57.8318 126.607 58.1654C125.804 60.6966 125.039 63.075 124.312 65.3005C123.597 67.5207 122.899 69.6046 122.218 71.5523C122.929 72.4033 123.566 73.1376 124.13 73.7553C124.693 74.3729 125.221 74.928 125.713 75.4203C126.2 75.9008 126.669 76.3397 127.119 76.7371C127.569 77.1344 128.045 77.527 128.548 77.9149C129.045 78.2909 129.582 78.6918 130.159 79.1177C130.731 79.5318 131.387 80.0075 132.129 80.5451C132.236 80.6253 132.314 80.7188 132.362 80.8257C132.426 80.9682 132.429 81.117 132.37 81.2719C132.323 81.4215 132.238 81.5666 132.116 81.7073C132.011 81.8545 131.871 81.9886 131.697 82.1097C131.54 82.2372 131.379 82.3384 131.212 82.4132C130.749 82.6214 130.22 82.6666 129.625 82.5488C129.034 82.4429 128.327 82.1399 127.503 81.6397C126.673 81.1276 125.703 80.4 124.594 79.4568C123.497 78.5082 122.2 77.3067 120.704 75.8522C120.011 77.8052 119.387 79.5133 118.832 80.9766C118.283 82.4226 117.782 83.6754 117.331 84.735C116.891 85.7893 116.481 86.6728 116.102 87.3857C115.735 88.0933 115.382 88.6732 115.043 89.1255C114.721 89.5843 114.403 89.9413 114.09 90.1964C113.776 90.4516 113.447 90.6566 113.103 90.8114C112.83 90.9342 112.557 90.9638 112.286 90.9002C112.003 90.8419 111.771 90.6109 111.589 90.2071C111.423 89.8389 111.395 89.459 111.505 89.0672C111.602 88.6807 111.763 88.3085 111.988 87.9506C112.207 87.5808 112.442 87.2466 112.694 86.9481C112.951 86.6323 113.14 86.3691 113.259 86.1584C113.64 85.5446 114.029 84.8059 114.426 83.9422C114.829 83.0613 115.243 82.076 115.667 80.9861C116.09 79.8962 116.524 78.7164 116.966 77.4466C117.404 76.165 117.85 74.808 118.306 73.3755C116.983 71.9573 115.841 70.6718 114.88 69.5191C113.914 68.3545 113.038 67.2635 112.252 66.2462C111.743 65.59 111.289 65.0089 110.891 64.5029C110.486 63.9851 110.207 63.554 110.052 63.2096C109.908 62.8889 109.858 62.476 109.902 61.9707C109.958 61.4602 110.078 60.9493 110.262 60.4382C110.441 59.9153 110.673 59.4469 110.958 59.0332C111.238 58.6076 111.538 58.3228 111.859 58.1786C112.227 58.0131 112.636 58.0649 113.085 58.334C113.529 58.5913 113.965 59.1949 114.392 60.145C114.472 60.3231 114.524 60.471 114.549 60.5886C114.579 60.6889 114.593 60.7827 114.589 60.87C114.586 60.9573 114.576 61.0472 114.561 61.1398C114.545 61.2324 114.535 61.3514 114.529 61.4969C114.533 61.5379 114.562 61.6177 114.615 61.7365C114.818 62.1878 115.351 62.9761 116.213 64.1015C117.076 65.2269 118.226 66.673 119.663 68.4397C119.673 68.4635 119.707 68.5057 119.762 68.5662L120.263 66.8209C120.63 65.8278 120.941 64.8673 121.194 63.9395C121.455 62.9944 121.709 62.0665 121.956 61.1559C122.198 60.2334 122.463 59.3147 122.751 58.3999C123.046 57.4679 123.414 56.5244 123.856 55.5693Z" fill="#FFD1B4"/>
<path d="M306.42 76.7974C306.77 76.6333 307.134 76.5087 307.511 76.4236C307.892 76.3263 308.266 76.2678 308.634 76.2484C309.005 76.2167 309.357 76.2195 309.69 76.2568C310.027 76.2819 310.318 76.3387 310.563 76.4273C310.844 76.5293 311.023 76.6491 311.097 76.787C311.184 76.9292 311.197 77.0861 311.135 77.2575C311.042 77.5146 310.806 77.8031 310.427 78.1229C310.065 78.4349 309.647 78.7476 309.173 79.0609C308.717 79.3664 308.246 79.653 307.761 79.9208C307.289 80.1929 306.898 80.4116 306.589 80.5767C304.251 81.835 302.046 83.0103 299.975 84.1026C297.916 85.1992 295.965 86.2101 294.121 87.1351C294.039 88.241 293.986 89.2116 293.96 90.0471C293.935 90.8826 293.928 91.6486 293.939 92.3449C293.954 93.0291 293.985 93.6703 294.032 94.2688C294.078 94.8672 294.147 95.4806 294.238 96.109C294.333 96.7251 294.44 97.3869 294.558 98.0942C294.68 98.7893 294.821 99.5878 294.979 100.49C295 100.622 294.991 100.743 294.951 100.854C294.898 101.001 294.796 101.109 294.646 101.179C294.508 101.254 294.347 101.299 294.161 101.315C293.983 101.348 293.789 101.347 293.58 101.313C293.379 101.295 293.192 101.256 293.021 101.194C292.543 101.021 292.132 100.685 291.786 100.186C291.436 99.6992 291.139 98.9894 290.895 98.0564C290.656 97.1112 290.466 95.9139 290.326 94.4646C290.198 93.0197 290.103 91.2544 290.041 89.1687C288.184 90.0893 286.548 90.8816 285.13 91.5456C283.729 92.2019 282.498 92.7533 281.437 93.1999C280.387 93.6509 279.478 94.0005 278.71 94.2486C277.954 94.5011 277.297 94.6718 276.738 94.7605C276.188 94.8659 275.711 94.9011 275.308 94.8661C274.906 94.8312 274.527 94.7494 274.172 94.6209C273.89 94.519 273.674 94.3508 273.523 94.1163C273.361 93.8773 273.355 93.5497 273.505 93.1335C273.643 92.7539 273.887 92.4615 274.238 92.2563C274.577 92.0466 274.952 91.8914 275.362 91.7907C275.777 91.6777 276.178 91.6015 276.567 91.5619C276.971 91.5146 277.29 91.4568 277.522 91.3886C278.223 91.2129 279.016 90.9531 279.902 90.6091C280.805 90.2573 281.788 89.8375 282.851 89.3498C283.914 88.862 285.046 88.3163 286.247 87.7127C287.453 87.0968 288.718 86.433 290.042 85.7212C290.079 83.7822 290.154 82.0644 290.266 80.568C290.383 79.0594 290.513 77.6664 290.657 76.3891C290.748 75.5635 290.827 74.8303 290.892 74.1894C290.963 73.5363 291.062 73.0322 291.191 72.6771C291.31 72.3466 291.562 72.0152 291.945 71.6831C292.34 71.3555 292.782 71.0723 293.27 70.8335C293.763 70.5824 294.255 70.4076 294.748 70.3089C295.245 70.198 295.659 70.2024 295.989 70.3221C296.369 70.4594 296.626 70.7811 296.762 71.287C296.902 71.7808 296.794 72.5174 296.44 73.4969C296.373 73.6805 296.308 73.823 296.244 73.9243C296.196 74.0178 296.14 74.0947 296.077 74.1549C296.014 74.215 295.944 74.273 295.869 74.3287C295.793 74.3845 295.703 74.4625 295.597 74.5627C295.571 74.595 295.537 74.6724 295.492 74.7948C295.324 75.2601 295.158 76.197 294.994 77.6056C294.831 79.0142 294.65 80.8528 294.452 83.1214C294.443 83.1459 294.438 83.1993 294.435 83.2816L296.009 82.3765C296.964 81.9189 297.856 81.4454 298.684 80.9557C299.528 80.4583 300.356 79.9687 301.168 79.4869C301.984 78.9928 302.813 78.5177 303.657 78.0614C304.517 77.5973 305.438 77.176 306.42 76.7974Z" fill="#FFD1B4"/>
<path d="M443.796 107.56C443.796 107.08 444.036 106.08 444.396 105.16C445.916 100.96 448.916 95.16 451.716 90.88C450.316 90.68 449.556 89.8 449.236 89.16C448.996 88.6 449.196 88.24 449.996 88.2C452.436 88.04 455.956 86.12 459.036 85.84C461.836 85.6 464.276 87.08 464.276 91.68C464.276 93.08 463.556 94.72 462.556 96C461.556 97.36 459.356 99.28 456.756 100.56C457.956 101.28 458.916 102.56 458.916 104.12C458.916 105.24 458.476 106.56 457.356 107.72C455.716 109.52 452.476 110.96 450.236 111.48C449.676 111.6 449.036 111.64 448.556 111.64C447.836 111.64 447.276 111.52 446.676 111.24C444.996 110.44 443.796 108.84 443.796 107.56ZM453.956 94.24C453.516 95.08 452.956 96.04 451.156 99C457.716 97.24 461.876 92.96 461.836 90.28C461.836 89.44 461.156 88.92 460.476 88.92C459.396 88.92 457.756 89.52 455.156 90.4C455.196 91.28 454.916 92.44 453.956 94.24ZM455.276 105.04C455.796 104.4 456.116 103.72 456.116 103.16C456.116 102.44 455.396 101.8 453.596 101.64C452.076 101.96 450.556 102.04 449.716 101.8C448.716 103.76 447.756 105.8 447.196 107.56C446.836 108.68 447.156 109.08 447.996 108.96C450.316 108.68 453.636 107.08 455.276 105.04Z" fill="#909090"/>
</svg>
