<svg viewBox="0 0 49 48" fill="none" xmlns="http://www.w3.org/2000/svg">
<path d="M22 8.5C22.56 8.5 23 8.94 23 9.5V13.5H35V25.5H39C39.56 25.5 40 25.94 40 26.5C40 27.06 39.56 27.5 39 27.5H35V39.5H30.76C29.4 36 25.98 33.5 22 33.5C18.02 33.5 14.6 36 13.24 39.5H9V35.26C12.5 33.9 15 30.48 15 26.5C15 22.52 12.52 19.1 9.02 17.74L9 13.5H21V9.5C21 8.94 21.44 8.5 22 8.5ZM22 4.5C19.24 4.5 17 6.74 17 9.5H9C6.8 9.5 5.02 11.3 5.02 13.5V21.1H5.6C8.58 21.1 11 23.52 11 26.5C11 29.48 8.58 31.9 5.6 31.9H5V39.5C5 41.7 6.8 43.5 9 43.5H16.6V42.9C16.6 39.92 19.02 37.5 22 37.5C24.98 37.5 27.4 39.92 27.4 42.9V43.5H35C37.2 43.5 39 41.7 39 39.5V31.5C41.76 31.5 44 29.26 44 26.5C44 23.74 41.76 21.5 39 21.5V13.5C39 11.3 37.2 9.5 35 9.5H27C27 6.74 24.76 4.5 22 4.5Z"/>
</svg>
