<svg viewBox="0 0 48 48" xmlns="http://www.w3.org/2000/svg">
<path d="M24.4441 39.71C24.0841 40.07 23.4441 40.13 23.0241 39.71C22.6641 39.35 22.6041 38.71 23.0241 38.29L29.8041 31.51L26.9841 28.69L20.2041 35.47C19.8241 35.87 19.1841 35.85 18.7841 35.47C18.3641 35.05 18.4241 34.41 18.7841 34.05L25.5641 27.27L22.7441 24.45L15.9641 31.23C15.6041 31.59 14.9641 31.65 14.5441 31.23C14.1641 30.85 14.1641 30.21 14.5441 29.81L21.3241 23.03L18.4841 20.21L11.7041 26.99C11.3441 27.35 10.7041 27.41 10.2841 26.99C9.90409 26.59 9.90409 25.97 10.2841 25.57L19.0441 16.81L22.7841 20.53C24.6841 22.43 27.9641 22.41 29.8641 20.53C31.8241 18.57 31.8241 15.41 29.8641 13.45L26.1441 9.73001L26.7041 9.17001C28.2641 7.61001 30.8041 7.61001 32.3641 9.17001L40.8441 17.65C42.4041 19.21 42.4041 21.75 40.8441 23.31L24.4441 39.71ZM43.6641 26.15C46.7841 23.03 46.7841 17.97 43.6641 14.83L35.1841 6.35001C32.0641 3.23001 27.0041 3.23001 23.8641 6.35001L23.3041 6.91001L22.7441 6.35001C19.6241 3.23001 14.5641 3.23001 11.4241 6.35001L4.34409 13.43C1.50409 16.27 1.24409 20.69 3.54409 23.81L6.44409 20.91C5.66409 19.41 5.92409 17.51 7.18409 16.25L14.2641 9.17001C15.8241 7.61001 18.3641 7.61001 19.9241 9.17001L27.0441 16.29C27.4041 16.65 27.4641 17.29 27.0441 17.71C26.6241 18.13 25.9841 18.07 25.6241 17.71L19.0441 11.15L7.44409 22.73C5.48409 24.67 5.48409 27.85 7.44409 29.81C8.22409 30.59 9.22409 31.07 10.2841 31.21C10.4241 32.25 10.8841 33.25 11.6841 34.05C12.4841 34.85 13.4841 35.31 14.5241 35.45C14.6641 36.49 15.1241 37.49 15.9241 38.29C16.7241 39.09 17.7241 39.55 18.7641 39.69C18.9041 40.77 19.3841 41.75 20.1641 42.53C21.1041 43.47 22.3641 43.99 23.7041 43.99C25.0441 43.99 26.3041 43.47 27.2441 42.53L43.6641 26.15Z"/>
</svg>
