<svg viewBox="0 0 48 48" xmlns="http://www.w3.org/2000/svg">
<path d="M32.478 23.0189L35.618 19.8789L28.118 12.3789L24.978 15.5189L16.698 7.25888C15.138 5.69888 12.598 5.69888 11.038 7.25888L7.23805 11.0589C5.67805 12.6189 5.67805 15.1589 7.23805 16.7189L15.498 24.9789L6.29805 34.1989C6.09805 34.3989 5.99805 34.6389 5.99805 34.9189V40.9989C5.99805 41.5589 6.43805 41.9989 6.99805 41.9989H13.078C13.338 41.9989 13.598 41.8989 13.778 41.6989L23.018 32.4589L31.278 40.7189C33.918 43.3589 36.798 40.8589 36.938 40.7189L40.738 36.9189C42.298 35.3589 42.298 32.8189 40.738 31.2589L32.478 23.0189ZM18.358 22.1389L10.078 13.8789L13.858 10.0789L16.398 12.6189L15.458 13.5989C14.678 14.3789 14.678 15.6389 15.458 16.4189C16.238 17.1989 17.498 17.1989 18.278 16.4189L19.238 15.4589L22.138 18.3589L18.358 22.1389ZM34.118 37.9189L25.858 29.6589L29.658 25.8589L32.558 28.7589L31.598 29.7189C30.818 30.4989 30.818 31.7589 31.598 32.5389C32.378 33.3189 33.638 33.3189 34.418 32.5389L35.378 31.5789L37.918 34.1189L34.118 37.9189Z"/>
<path d="M41.418 14.0789C42.198 13.2989 42.198 12.0389 41.418 11.2589L36.738 6.57888C35.798 5.63888 34.498 5.99888 33.918 6.57888L30.258 10.2389L37.758 17.7389L41.418 14.0789Z"/>
</svg>
