<svg viewBox="0 0 48 48" fill="none" xmlns="http://www.w3.org/2000/svg">
<path id="Vector" d="M31.9524 28.9431H30.3724L29.8124 28.4031C32.2124 25.6031 33.4524 21.7831 32.7724 17.7231C31.8324 12.1631 27.1924 7.72315 21.5924 7.04315C13.1324 6.00315 6.01242 13.1231 7.05242 21.5831C7.73242 27.1831 12.1724 31.8231 17.7324 32.7631C21.7924 33.4431 25.6124 32.2031 28.4124 29.8031L28.9524 30.3631V31.9431L37.4524 40.4431C38.2724 41.2631 39.6124 41.2631 40.4324 40.4431C41.2524 39.6231 41.2524 38.2831 40.4324 37.4631L31.9524 28.9431ZM19.9524 28.9431C14.9724 28.9431 10.9524 24.9231 10.9524 19.9431C10.9524 14.9631 14.9724 10.9431 19.9524 10.9431C24.9324 10.9431 28.9524 14.9631 28.9524 19.9431C28.9524 24.9231 24.9324 28.9431 19.9524 28.9431Z"/>
</svg>
