<svg width="49" height="48" viewBox="0 0 49 48" fill="none" xmlns="http://www.w3.org/2000/svg">
<g id="fingerprint">
<path id="Vector" d="M36.1302 8.94C35.9702 8.94 35.8102 8.9 35.6702 8.82C31.8302 6.84 28.5102 6 24.5302 6C20.5702 6 16.8102 6.94 13.3902 8.82C12.9102 9.08 12.3102 8.9 12.0302 8.42C11.7702 7.94 11.9502 7.32 12.4302 7.06C16.1502 5.04 20.2302 4 24.5302 4C28.7902 4 32.5102 4.94 36.5902 7.04C37.0902 7.3 37.2702 7.9 37.0102 8.38C36.8302 8.74 36.4902 8.94 36.1302 8.94ZM7.51022 19.44C7.31022 19.44 7.11022 19.38 6.93022 19.26C6.47022 18.94 6.37022 18.32 6.69022 17.86C8.67022 15.06 11.1902 12.86 14.1902 11.32C20.4702 8.08 28.5102 8.06 34.8102 11.3C37.8102 12.84 40.3302 15.02 42.3102 17.8C42.6302 18.24 42.5302 18.88 42.0702 19.2C41.6102 19.52 40.9902 19.42 40.6702 18.96C38.8702 16.44 36.5902 14.46 33.8902 13.08C28.1502 10.14 20.8102 10.14 15.0902 13.1C12.3702 14.5 10.0902 16.5 8.29022 19.02C8.13022 19.3 7.83022 19.44 7.51022 19.44ZM20.0102 43.58C19.7502 43.58 19.4902 43.48 19.3102 43.28C17.5702 41.54 16.6302 40.42 15.2902 38C13.9102 35.54 13.1902 32.54 13.1902 29.32C13.1902 23.38 18.2702 18.54 24.5102 18.54C30.7502 18.54 35.8302 23.38 35.8302 29.32C35.8302 29.88 35.3902 30.32 34.8302 30.32C34.2702 30.32 33.8302 29.88 33.8302 29.32C33.8302 24.48 29.6502 20.54 24.5102 20.54C19.3702 20.54 15.1902 24.48 15.1902 29.32C15.1902 32.2 15.8302 34.86 17.0502 37.02C18.3302 39.32 19.2102 40.3 20.7502 41.86C21.1302 42.26 21.1302 42.88 20.7502 43.28C20.5302 43.48 20.2702 43.58 20.0102 43.58ZM34.3502 39.88C31.9702 39.88 29.8702 39.28 28.1502 38.1C25.1702 36.08 23.3902 32.8 23.3902 29.32C23.3902 28.76 23.8302 28.32 24.3902 28.32C24.9502 28.32 25.3902 28.76 25.3902 29.32C25.3902 32.14 26.8302 34.8 29.2702 36.44C30.6902 37.4 32.3502 37.86 34.3502 37.86C34.8302 37.86 35.6302 37.8 36.4302 37.66C36.9702 37.56 37.4902 37.92 37.5902 38.48C37.6902 39.02 37.3302 39.54 36.7702 39.64C35.6302 39.86 34.6302 39.88 34.3502 39.88ZM30.3302 44C30.2502 44 30.1502 43.98 30.0702 43.96C26.8902 43.08 24.8102 41.9 22.6302 39.76C19.8302 36.98 18.2902 33.28 18.2902 29.32C18.2902 26.08 21.0502 23.44 24.4502 23.44C27.8502 23.44 30.6102 26.08 30.6102 29.32C30.6102 31.46 32.4702 33.2 34.7702 33.2C37.0702 33.2 38.9302 31.46 38.9302 29.32C38.9302 21.78 32.4302 15.66 24.4302 15.66C18.7502 15.66 13.5502 18.82 11.2102 23.72C10.4302 25.34 10.0302 27.24 10.0302 29.32C10.0302 30.88 10.1702 33.34 11.3702 36.54C11.5702 37.06 11.3102 37.64 10.7902 37.82C10.2702 38.02 9.69022 37.74 9.51022 37.24C8.53022 34.62 8.05022 32.02 8.05022 29.32C8.05022 26.92 8.51022 24.74 9.41022 22.84C12.0702 17.26 17.9702 13.64 24.4302 13.64C33.5302 13.64 40.9302 20.66 40.9302 29.3C40.9302 32.54 38.1702 35.18 34.7702 35.18C31.3702 35.18 28.6102 32.54 28.6102 29.3C28.6102 27.16 26.7502 25.42 24.4502 25.42C22.1502 25.42 20.2902 27.16 20.2902 29.3C20.2902 32.72 21.6102 35.92 24.0302 38.32C25.9302 40.2 27.7502 41.24 30.5702 42.02C31.1102 42.16 31.4102 42.72 31.2702 43.24C31.1702 43.7 30.7502 44 30.3302 44Z" fill="#2A2A2A"/>
</g>
</svg>
