<svg viewBox="0 0 49 48" xmlns="http://www.w3.org/2000/svg">
<path d="M28.2812 21.095L26.1612 20.115C25.3812 19.755 25.3812 18.655 26.1612 18.295L28.2812 17.315L29.2612 15.215C29.6212 14.435 30.7212 14.435 31.0812 15.215L32.0612 17.335L34.1612 18.315C34.9412 18.675 34.9412 19.775 34.1612 20.135L32.0412 21.115L31.0612 23.215C30.7012 23.995 29.6012 23.995 29.2412 23.215L28.2812 21.095ZM9.06117 27.215L10.0412 25.095L12.1612 24.115C12.9412 23.755 12.9412 22.655 12.1612 22.295L10.0412 21.315L9.06117 19.215C8.72117 18.435 7.60117 18.435 7.26117 19.215L6.28117 21.335L4.16117 22.315C3.38117 22.675 3.38117 23.775 4.16117 24.135L6.28117 25.115L7.26117 27.215C7.60117 27.995 8.72117 27.995 9.06117 27.215ZM18.0812 17.195L19.3412 14.395L22.1412 13.135C22.9212 12.775 22.9212 11.675 22.1412 11.315L19.3412 10.055L18.0812 7.25504C17.7212 6.47504 16.6212 6.47504 16.2612 7.25504L15.0012 10.055L12.2012 11.315C11.4212 11.675 11.4212 12.775 12.2012 13.135L15.0012 14.395L16.2612 17.195C16.6012 17.975 17.7212 17.975 18.0812 17.195ZM44.8412 17.755C44.0412 16.955 42.7012 16.975 41.9412 17.835L29.1612 32.195L22.5812 25.615C21.8012 24.835 20.5412 24.835 19.7612 25.615L7.68117 37.715C6.86117 38.535 6.86117 39.895 7.68117 40.715C8.50117 41.535 9.86117 41.535 10.6812 40.715L21.1812 30.195L27.6812 36.695C28.5012 37.515 29.8212 37.475 30.5812 36.615L44.9212 20.475C45.6212 19.695 45.5812 18.495 44.8412 17.755Z"/>
</svg>
